<mxfile host="65bd71144e">
    <diagram name="Page-1" id="fVsF8Qxqmbjd0OwSfMHX">
        <mxGraphModel dx="1740" dy="1486" grid="1" gridSize="10" guides="1" tooltips="1" connect="1" arrows="1" fold="1" page="1" pageScale="1" pageWidth="850" pageHeight="1100" math="0" shadow="0">
            <root>
                <mxCell id="0"/>
                <mxCell id="1" parent="0"/>
                <mxCell id="ehSkRj99vIMIgLYnT_tA-1" value="" style="strokeWidth=2;html=1;shape=mxgraph.flowchart.terminator;whiteSpace=wrap;" parent="1" vertex="1">
                    <mxGeometry x="380" y="20" width="60" height="30" as="geometry"/>
                </mxCell>
                <mxCell id="ehSkRj99vIMIgLYnT_tA-3" value="start" style="text;html=1;align=center;verticalAlign=middle;resizable=0;points=[];autosize=1;strokeColor=none;fillColor=none;" parent="1" vertex="1">
                    <mxGeometry x="385" y="20" width="50" height="30" as="geometry"/>
                </mxCell>
                <mxCell id="ehSkRj99vIMIgLYnT_tA-4" value="" style="endArrow=classic;html=1;rounded=0;exitX=0.452;exitY=1.12;exitDx=0;exitDy=0;exitPerimeter=0;" parent="1" source="ehSkRj99vIMIgLYnT_tA-3" edge="1">
                    <mxGeometry width="50" height="50" relative="1" as="geometry">
                        <mxPoint x="510" y="320" as="sourcePoint"/>
                        <mxPoint x="408" y="90" as="targetPoint"/>
                    </mxGeometry>
                </mxCell>
                <mxCell id="ehSkRj99vIMIgLYnT_tA-5" value="" style="rounded=0;whiteSpace=wrap;html=1;" parent="1" vertex="1">
                    <mxGeometry x="380" y="90" width="60" height="30" as="geometry"/>
                </mxCell>
                <mxCell id="ehSkRj99vIMIgLYnT_tA-6" value="sign in/&lt;div&gt;sign up&lt;/div&gt;" style="text;html=1;align=center;verticalAlign=middle;resizable=0;points=[];autosize=1;strokeColor=none;fillColor=none;" parent="1" vertex="1">
                    <mxGeometry x="380" y="85" width="60" height="40" as="geometry"/>
                </mxCell>
                <mxCell id="ehSkRj99vIMIgLYnT_tA-7" value="" style="endArrow=classic;html=1;rounded=0;exitX=0.486;exitY=1.054;exitDx=0;exitDy=0;exitPerimeter=0;entryX=0.5;entryY=0;entryDx=0;entryDy=0;" parent="1" source="ehSkRj99vIMIgLYnT_tA-6" target="ehSkRj99vIMIgLYnT_tA-8" edge="1">
                    <mxGeometry width="50" height="50" relative="1" as="geometry">
                        <mxPoint x="510" y="320" as="sourcePoint"/>
                        <mxPoint x="406" y="160" as="targetPoint"/>
                        <Array as="points">
                            <mxPoint x="410" y="140"/>
                        </Array>
                    </mxGeometry>
                </mxCell>
                <mxCell id="ehSkRj99vIMIgLYnT_tA-8" value="" style="rhombus;whiteSpace=wrap;html=1;" parent="1" vertex="1">
                    <mxGeometry x="370" y="160" width="80" height="80" as="geometry"/>
                </mxCell>
                <mxCell id="ehSkRj99vIMIgLYnT_tA-15" value="" style="edgeStyle=orthogonalEdgeStyle;rounded=0;orthogonalLoop=1;jettySize=auto;html=1;" parent="1" source="ehSkRj99vIMIgLYnT_tA-10" target="ehSkRj99vIMIgLYnT_tA-14" edge="1">
                    <mxGeometry relative="1" as="geometry">
                        <mxPoint x="329.53999999999996" y="199.54999999999995" as="targetPoint"/>
                    </mxGeometry>
                </mxCell>
                <mxCell id="ehSkRj99vIMIgLYnT_tA-10" value="check valid" style="text;html=1;align=center;verticalAlign=middle;resizable=0;points=[];autosize=1;strokeColor=none;fillColor=none;" parent="1" vertex="1">
                    <mxGeometry x="370" y="185" width="80" height="30" as="geometry"/>
                </mxCell>
                <mxCell id="ehSkRj99vIMIgLYnT_tA-13" value="&lt;font style=&quot;color: rgb(255, 255, 255);&quot;&gt;Yes&lt;/font&gt;" style="text;html=1;align=center;verticalAlign=middle;resizable=0;points=[];autosize=1;strokeColor=none;fillColor=none;" parent="1" vertex="1">
                    <mxGeometry x="405" y="240" width="40" height="30" as="geometry"/>
                </mxCell>
                <mxCell id="ehSkRj99vIMIgLYnT_tA-14" value="create a new&lt;div&gt;account&amp;nbsp;&amp;nbsp;&lt;/div&gt;" style="whiteSpace=wrap;html=1;" parent="1" vertex="1">
                    <mxGeometry x="225" y="180" width="80" height="40" as="geometry"/>
                </mxCell>
                <mxCell id="ehSkRj99vIMIgLYnT_tA-20" value="" style="endArrow=classic;html=1;rounded=0;exitX=0;exitY=0.5;exitDx=0;exitDy=0;" parent="1" source="ehSkRj99vIMIgLYnT_tA-14" edge="1">
                    <mxGeometry width="50" height="50" relative="1" as="geometry">
                        <mxPoint x="202.98000000000002" y="199.6400000000001" as="sourcePoint"/>
                        <mxPoint x="180" y="200" as="targetPoint"/>
                    </mxGeometry>
                </mxCell>
                <mxCell id="ehSkRj99vIMIgLYnT_tA-21" value="" style="shape=parallelogram;perimeter=parallelogramPerimeter;whiteSpace=wrap;html=1;fixedSize=1;" parent="1" vertex="1">
                    <mxGeometry x="70" y="180" width="120" height="40" as="geometry"/>
                </mxCell>
                <mxCell id="ehSkRj99vIMIgLYnT_tA-22" value="accept gmail_id&lt;div&gt;password&lt;/div&gt;" style="text;html=1;align=center;verticalAlign=middle;resizable=0;points=[];autosize=1;strokeColor=none;fillColor=none;" parent="1" vertex="1">
                    <mxGeometry x="75" y="180" width="110" height="40" as="geometry"/>
                </mxCell>
                <mxCell id="ehSkRj99vIMIgLYnT_tA-23" value="Input" style="text;html=1;align=center;verticalAlign=middle;resizable=0;points=[];autosize=1;strokeColor=none;fillColor=none;" parent="1" vertex="1">
                    <mxGeometry x="20" y="185" width="50" height="30" as="geometry"/>
                </mxCell>
                <mxCell id="ehSkRj99vIMIgLYnT_tA-24" value="" style="endArrow=classic;html=1;rounded=0;exitX=0.561;exitY=0.046;exitDx=0;exitDy=0;exitPerimeter=0;entryX=-0.041;entryY=0.395;entryDx=0;entryDy=0;entryPerimeter=0;" parent="1" source="ehSkRj99vIMIgLYnT_tA-22" target="ehSkRj99vIMIgLYnT_tA-6" edge="1">
                    <mxGeometry width="50" height="50" relative="1" as="geometry">
                        <mxPoint x="450" y="250" as="sourcePoint"/>
                        <mxPoint x="500" y="200" as="targetPoint"/>
                        <Array as="points">
                            <mxPoint x="137" y="102"/>
                        </Array>
                    </mxGeometry>
                </mxCell>
                <mxCell id="ehSkRj99vIMIgLYnT_tA-25" value="" style="endArrow=classic;html=1;rounded=0;exitX=0.963;exitY=0.507;exitDx=0;exitDy=0;exitPerimeter=0;" parent="1" source="ehSkRj99vIMIgLYnT_tA-10" target="ehSkRj99vIMIgLYnT_tA-26" edge="1">
                    <mxGeometry width="50" height="50" relative="1" as="geometry">
                        <mxPoint x="460" y="280" as="sourcePoint"/>
                        <mxPoint x="490" y="200" as="targetPoint"/>
                    </mxGeometry>
                </mxCell>
                <mxCell id="ehSkRj99vIMIgLYnT_tA-26" value="" style="rounded=0;whiteSpace=wrap;html=1;" parent="1" vertex="1">
                    <mxGeometry x="500" y="190" width="90" height="20" as="geometry"/>
                </mxCell>
                <mxCell id="ehSkRj99vIMIgLYnT_tA-27" value="login sucessfull" style="text;html=1;align=center;verticalAlign=middle;resizable=0;points=[];autosize=1;strokeColor=none;fillColor=none;" parent="1" vertex="1">
                    <mxGeometry x="495" y="185" width="100" height="30" as="geometry"/>
                </mxCell>
                <mxCell id="ehSkRj99vIMIgLYnT_tA-28" value="" style="endArrow=classic;html=1;rounded=0;exitX=0.453;exitY=0.107;exitDx=0;exitDy=0;exitPerimeter=0;" parent="1" edge="1" source="ehSkRj99vIMIgLYnT_tA-27">
                    <mxGeometry width="50" height="50" relative="1" as="geometry">
                        <mxPoint x="540" y="185" as="sourcePoint"/>
                        <mxPoint x="590" y="-80" as="targetPoint"/>
                    </mxGeometry>
                </mxCell>
                <mxCell id="ehSkRj99vIMIgLYnT_tA-29" value="" style="rounded=0;whiteSpace=wrap;html=1;" parent="1" vertex="1">
                    <mxGeometry x="490" y="280" width="90" height="30" as="geometry"/>
                </mxCell>
                <mxCell id="ehSkRj99vIMIgLYnT_tA-30" value="Home page&amp;nbsp;" style="text;html=1;align=center;verticalAlign=middle;resizable=0;points=[];autosize=1;strokeColor=none;fillColor=none;" parent="1" vertex="1">
                    <mxGeometry x="490" y="280" width="90" height="30" as="geometry"/>
                </mxCell>
                <mxCell id="ehSkRj99vIMIgLYnT_tA-31" value="" style="endArrow=classic;html=1;rounded=0;exitX=0.023;exitY=0.489;exitDx=0;exitDy=0;exitPerimeter=0;" parent="1" source="ehSkRj99vIMIgLYnT_tA-30" edge="1">
                    <mxGeometry width="50" height="50" relative="1" as="geometry">
                        <mxPoint x="310" y="330" as="sourcePoint"/>
                        <mxPoint x="440" y="295" as="targetPoint"/>
                    </mxGeometry>
                </mxCell>
                <mxCell id="ehSkRj99vIMIgLYnT_tA-32" value="" style="rounded=0;whiteSpace=wrap;html=1;" parent="1" vertex="1">
                    <mxGeometry x="320" y="280" width="120" height="30" as="geometry"/>
                </mxCell>
                <mxCell id="ehSkRj99vIMIgLYnT_tA-33" value="browse section" style="text;html=1;align=center;verticalAlign=middle;resizable=0;points=[];autosize=1;strokeColor=none;fillColor=none;" parent="1" vertex="1">
                    <mxGeometry x="330" y="280" width="100" height="30" as="geometry"/>
                </mxCell>
                <mxCell id="ehSkRj99vIMIgLYnT_tA-34" value="&lt;font style=&quot;color: rgb(255, 255, 255);&quot;&gt;All,Trending,Top,Comedy,Horror&lt;/font&gt;" style="text;html=1;align=center;verticalAlign=middle;resizable=0;points=[];autosize=1;strokeColor=none;fillColor=none;" parent="1" vertex="1">
                    <mxGeometry x="285" y="310" width="190" height="30" as="geometry"/>
                </mxCell>
                <mxCell id="ehSkRj99vIMIgLYnT_tA-35" value="" style="endArrow=classic;html=1;rounded=0;exitX=0;exitY=0.5;exitDx=0;exitDy=0;entryX=1;entryY=0.5;entryDx=0;entryDy=0;" parent="1" source="ehSkRj99vIMIgLYnT_tA-32" target="ehSkRj99vIMIgLYnT_tA-36" edge="1">
                    <mxGeometry width="50" height="50" relative="1" as="geometry">
                        <mxPoint x="310" y="330" as="sourcePoint"/>
                        <mxPoint x="250" y="295" as="targetPoint"/>
                    </mxGeometry>
                </mxCell>
                <mxCell id="ehSkRj99vIMIgLYnT_tA-36" value="" style="rounded=0;whiteSpace=wrap;html=1;" parent="1" vertex="1">
                    <mxGeometry x="175" y="280" width="80" height="30" as="geometry"/>
                </mxCell>
                <mxCell id="ehSkRj99vIMIgLYnT_tA-37" value="search bar&amp;nbsp;" style="text;html=1;align=center;verticalAlign=middle;whiteSpace=wrap;rounded=0;" parent="1" vertex="1">
                    <mxGeometry x="185" y="280" width="60" height="30" as="geometry"/>
                </mxCell>
                <mxCell id="ehSkRj99vIMIgLYnT_tA-39" value="" style="endArrow=classic;html=1;rounded=0;exitX=0.5;exitY=1;exitDx=0;exitDy=0;" parent="1" source="ehSkRj99vIMIgLYnT_tA-37" edge="1">
                    <mxGeometry width="50" height="50" relative="1" as="geometry">
                        <mxPoint x="350" y="360" as="sourcePoint"/>
                        <mxPoint x="215" y="360" as="targetPoint"/>
                    </mxGeometry>
                </mxCell>
                <mxCell id="ehSkRj99vIMIgLYnT_tA-40" value="" style="rhombus;whiteSpace=wrap;html=1;" parent="1" vertex="1">
                    <mxGeometry x="160" y="360" width="110" height="80" as="geometry"/>
                </mxCell>
                <mxCell id="ehSkRj99vIMIgLYnT_tA-41" value="check&amp;nbsp;&lt;div&gt;availability&lt;/div&gt;" style="text;html=1;align=center;verticalAlign=middle;resizable=0;points=[];autosize=1;strokeColor=none;fillColor=none;" parent="1" vertex="1">
                    <mxGeometry x="175" y="380" width="80" height="40" as="geometry"/>
                </mxCell>
                <mxCell id="ehSkRj99vIMIgLYnT_tA-42" value="" style="endArrow=classic;html=1;rounded=0;exitX=1;exitY=0.5;exitDx=0;exitDy=0;" parent="1" source="ehSkRj99vIMIgLYnT_tA-40" edge="1">
                    <mxGeometry width="50" height="50" relative="1" as="geometry">
                        <mxPoint x="263.1" y="398.9200000000001" as="sourcePoint"/>
                        <mxPoint x="336.9" y="400" as="targetPoint"/>
                    </mxGeometry>
                </mxCell>
                <mxCell id="ehSkRj99vIMIgLYnT_tA-44" value="" style="endArrow=classic;html=1;rounded=0;exitX=0;exitY=0.5;exitDx=0;exitDy=0;entryX=0.982;entryY=0.661;entryDx=0;entryDy=0;entryPerimeter=0;" parent="1" source="ehSkRj99vIMIgLYnT_tA-40" target="ehSkRj99vIMIgLYnT_tA-47" edge="1">
                    <mxGeometry width="50" height="50" relative="1" as="geometry">
                        <mxPoint x="350" y="360" as="sourcePoint"/>
                        <mxPoint x="110" y="400" as="targetPoint"/>
                    </mxGeometry>
                </mxCell>
                <mxCell id="ehSkRj99vIMIgLYnT_tA-45" value="&lt;font style=&quot;color: rgb(255, 255, 255);&quot;&gt;NO&lt;/font&gt;" style="text;html=1;align=center;verticalAlign=middle;resizable=0;points=[];autosize=1;strokeColor=none;fillColor=none;" parent="1" vertex="1">
                    <mxGeometry x="120" y="370" width="40" height="30" as="geometry"/>
                </mxCell>
                <mxCell id="ehSkRj99vIMIgLYnT_tA-46" value="" style="shape=parallelogram;perimeter=parallelogramPerimeter;whiteSpace=wrap;html=1;fixedSize=1;" parent="1" vertex="1">
                    <mxGeometry y="360" width="120" height="60" as="geometry"/>
                </mxCell>
                <mxCell id="ehSkRj99vIMIgLYnT_tA-47" value="Not available,&amp;nbsp;&lt;div&gt;search another&amp;nbsp;&lt;/div&gt;&lt;div&gt;movie&amp;nbsp;&lt;/div&gt;" style="text;html=1;align=center;verticalAlign=middle;resizable=0;points=[];autosize=1;strokeColor=none;fillColor=none;" parent="1" vertex="1">
                    <mxGeometry y="360" width="110" height="60" as="geometry"/>
                </mxCell>
                <mxCell id="ehSkRj99vIMIgLYnT_tA-48" value="Output" style="text;html=1;align=center;verticalAlign=middle;resizable=0;points=[];autosize=1;strokeColor=none;fillColor=none;" parent="1" vertex="1">
                    <mxGeometry x="20" y="420" width="60" height="30" as="geometry"/>
                </mxCell>
                <mxCell id="ehSkRj99vIMIgLYnT_tA-49" value="" style="rounded=0;whiteSpace=wrap;html=1;" parent="1" vertex="1">
                    <mxGeometry x="670" y="180" width="90" height="40" as="geometry"/>
                </mxCell>
                <mxCell id="ehSkRj99vIMIgLYnT_tA-50" value="Get premium" style="text;html=1;align=center;verticalAlign=middle;resizable=0;points=[];autosize=1;strokeColor=none;fillColor=none;" parent="1" vertex="1">
                    <mxGeometry x="670" y="185" width="90" height="30" as="geometry"/>
                </mxCell>
                <mxCell id="ehSkRj99vIMIgLYnT_tA-51" value="" style="endArrow=classic;html=1;rounded=0;exitX=1.013;exitY=0.527;exitDx=0;exitDy=0;exitPerimeter=0;" parent="1" source="ehSkRj99vIMIgLYnT_tA-50" edge="1">
                    <mxGeometry width="50" height="50" relative="1" as="geometry">
                        <mxPoint x="350" y="360" as="sourcePoint"/>
                        <mxPoint x="800" y="260" as="targetPoint"/>
                        <Array as="points">
                            <mxPoint x="800" y="201"/>
                        </Array>
                    </mxGeometry>
                </mxCell>
                <mxCell id="ehSkRj99vIMIgLYnT_tA-54" value="Silver=Low quality picture&lt;div&gt;Gold=Mid quality picture with HDR&lt;/div&gt;&lt;div&gt;Platinum=High quality picture with HDR&lt;/div&gt;" style="text;html=1;align=center;verticalAlign=middle;resizable=0;points=[];autosize=1;strokeColor=none;fillColor=none;" parent="1" vertex="1">
                    <mxGeometry x="680" y="310" width="230" height="60" as="geometry"/>
                </mxCell>
                <mxCell id="ehSkRj99vIMIgLYnT_tA-56" value="" style="endArrow=classic;html=1;rounded=0;entryX=0.016;entryY=0.505;entryDx=0;entryDy=0;entryPerimeter=0;" parent="1" source="ehSkRj99vIMIgLYnT_tA-59" target="ehSkRj99vIMIgLYnT_tA-58" edge="1">
                    <mxGeometry width="50" height="50" relative="1" as="geometry">
                        <mxPoint x="695.9699999999998" y="281.84000000000003" as="sourcePoint"/>
                        <mxPoint x="921.2308443509615" y="287" as="targetPoint"/>
                    </mxGeometry>
                </mxCell>
                <mxCell id="ehSkRj99vIMIgLYnT_tA-57" value="" style="rounded=0;whiteSpace=wrap;html=1;" parent="1" vertex="1">
                    <mxGeometry x="920" y="270" width="70" height="30" as="geometry"/>
                </mxCell>
                <mxCell id="ehSkRj99vIMIgLYnT_tA-58" value="Payment" style="text;html=1;align=center;verticalAlign=middle;resizable=0;points=[];autosize=1;strokeColor=none;fillColor=none;" parent="1" vertex="1">
                    <mxGeometry x="920" y="270" width="70" height="30" as="geometry"/>
                </mxCell>
                <mxCell id="ehSkRj99vIMIgLYnT_tA-59" value="" style="shape=parallelogram;perimeter=parallelogramPerimeter;whiteSpace=wrap;html=1;fixedSize=1;" parent="1" vertex="1">
                    <mxGeometry x="740" y="262.5" width="110" height="47.5" as="geometry"/>
                </mxCell>
                <mxCell id="ehSkRj99vIMIgLYnT_tA-62" value="Select Package" style="text;html=1;align=center;verticalAlign=middle;whiteSpace=wrap;rounded=0;" parent="1" vertex="1">
                    <mxGeometry x="765" y="270" width="60" height="30" as="geometry"/>
                </mxCell>
                <mxCell id="ehSkRj99vIMIgLYnT_tA-63" value="" style="endArrow=classic;html=1;rounded=0;exitX=0.557;exitY=0.99;exitDx=0;exitDy=0;exitPerimeter=0;" parent="1" source="ehSkRj99vIMIgLYnT_tA-58" edge="1">
                    <mxGeometry width="50" height="50" relative="1" as="geometry">
                        <mxPoint x="240" y="120" as="sourcePoint"/>
                        <mxPoint x="959" y="380" as="targetPoint"/>
                    </mxGeometry>
                </mxCell>
                <mxCell id="ehSkRj99vIMIgLYnT_tA-64" value="" style="rounded=0;whiteSpace=wrap;html=1;" parent="1" vertex="1">
                    <mxGeometry x="920" y="385" width="70" height="45" as="geometry"/>
                </mxCell>
                <mxCell id="ehSkRj99vIMIgLYnT_tA-66" value="Payment Mode" style="text;html=1;align=center;verticalAlign=middle;whiteSpace=wrap;rounded=0;" parent="1" vertex="1">
                    <mxGeometry x="925" y="390" width="60" height="30" as="geometry"/>
                </mxCell>
                <mxCell id="ehSkRj99vIMIgLYnT_tA-69" value="UPI,debit card details,&lt;div&gt;credit&lt;span style=&quot;background-color: transparent; color: light-dark(rgb(0, 0, 0), rgb(255, 255, 255));&quot;&gt;card details&lt;/span&gt;&lt;/div&gt;" style="text;html=1;align=center;verticalAlign=middle;resizable=0;points=[];autosize=1;strokeColor=none;fillColor=none;" parent="1" vertex="1">
                    <mxGeometry x="885" y="430" width="140" height="40" as="geometry"/>
                </mxCell>
                <mxCell id="ehSkRj99vIMIgLYnT_tA-70" value="" style="endArrow=classic;html=1;rounded=0;exitX=0;exitY=0.5;exitDx=0;exitDy=0;" parent="1" source="ehSkRj99vIMIgLYnT_tA-64" edge="1">
                    <mxGeometry width="50" height="50" relative="1" as="geometry">
                        <mxPoint x="800" y="380" as="sourcePoint"/>
                        <mxPoint x="840" y="408" as="targetPoint"/>
                    </mxGeometry>
                </mxCell>
                <mxCell id="ehSkRj99vIMIgLYnT_tA-76" value="" style="edgeStyle=orthogonalEdgeStyle;rounded=0;orthogonalLoop=1;jettySize=auto;html=1;" parent="1" source="ehSkRj99vIMIgLYnT_tA-71" target="ehSkRj99vIMIgLYnT_tA-75" edge="1">
                    <mxGeometry relative="1" as="geometry"/>
                </mxCell>
                <mxCell id="ehSkRj99vIMIgLYnT_tA-71" value="" style="rounded=0;whiteSpace=wrap;html=1;" parent="1" vertex="1">
                    <mxGeometry x="755" y="390" width="80" height="40" as="geometry"/>
                </mxCell>
                <mxCell id="ehSkRj99vIMIgLYnT_tA-72" value="Enter details" style="text;html=1;align=center;verticalAlign=middle;resizable=0;points=[];autosize=1;strokeColor=none;fillColor=none;" parent="1" vertex="1">
                    <mxGeometry x="750" y="390" width="90" height="30" as="geometry"/>
                </mxCell>
                <mxCell id="ehSkRj99vIMIgLYnT_tA-73" value="Pin and other details" style="text;html=1;align=center;verticalAlign=middle;whiteSpace=wrap;rounded=0;" parent="1" vertex="1">
                    <mxGeometry x="765" y="440" width="60" height="30" as="geometry"/>
                </mxCell>
                <mxCell id="ehSkRj99vIMIgLYnT_tA-75" value="" style="rounded=0;whiteSpace=wrap;html=1;" parent="1" vertex="1">
                    <mxGeometry x="580" y="390" width="110" height="40" as="geometry"/>
                </mxCell>
                <mxCell id="ehSkRj99vIMIgLYnT_tA-77" value="Payment Sucessfull" style="text;html=1;align=center;verticalAlign=middle;resizable=0;points=[];autosize=1;strokeColor=none;fillColor=none;" parent="1" vertex="1">
                    <mxGeometry x="570" y="392.5" width="130" height="30" as="geometry"/>
                </mxCell>
                <mxCell id="ehSkRj99vIMIgLYnT_tA-78" value="" style="endArrow=classic;html=1;rounded=0;exitX=0.077;exitY=0.583;exitDx=0;exitDy=0;exitPerimeter=0;entryX=0.461;entryY=0.949;entryDx=0;entryDy=0;entryPerimeter=0;" parent="1" source="ehSkRj99vIMIgLYnT_tA-77" target="ehSkRj99vIMIgLYnT_tA-30" edge="1">
                    <mxGeometry width="50" height="50" relative="1" as="geometry">
                        <mxPoint x="570" y="280" as="sourcePoint"/>
                        <mxPoint x="620" y="230" as="targetPoint"/>
                        <Array as="points">
                            <mxPoint x="533" y="410"/>
                        </Array>
                    </mxGeometry>
                </mxCell>
                <mxCell id="ehSkRj99vIMIgLYnT_tA-79" value="" style="rounded=0;whiteSpace=wrap;html=1;" parent="1" vertex="1">
                    <mxGeometry x="335" y="380" width="65" height="40" as="geometry"/>
                </mxCell>
                <mxCell id="ehSkRj99vIMIgLYnT_tA-80" value="Watch" style="text;html=1;align=center;verticalAlign=middle;resizable=0;points=[];autosize=1;strokeColor=none;fillColor=none;" parent="1" vertex="1">
                    <mxGeometry x="335" y="385" width="60" height="30" as="geometry"/>
                </mxCell>
                <mxCell id="ehSkRj99vIMIgLYnT_tA-81" value="" style="endArrow=classic;html=1;rounded=0;exitX=0.371;exitY=1.021;exitDx=0;exitDy=0;exitPerimeter=0;" parent="1" source="ehSkRj99vIMIgLYnT_tA-79" edge="1">
                    <mxGeometry width="50" height="50" relative="1" as="geometry">
                        <mxPoint x="359.735" y="423.64" as="sourcePoint"/>
                        <mxPoint x="359.98" y="470" as="targetPoint"/>
                    </mxGeometry>
                </mxCell>
                <mxCell id="ehSkRj99vIMIgLYnT_tA-82" value="Alone" style="text;html=1;align=center;verticalAlign=middle;resizable=0;points=[];autosize=1;strokeColor=none;fillColor=none;" parent="1" vertex="1">
                    <mxGeometry x="315" y="422.5" width="50" height="30" as="geometry"/>
                </mxCell>
                <mxCell id="ehSkRj99vIMIgLYnT_tA-83" value="" style="endArrow=classic;html=1;rounded=0;exitX=0.997;exitY=0.596;exitDx=0;exitDy=0;exitPerimeter=0;entryX=0;entryY=0.5;entryDx=0;entryDy=0;" parent="1" source="ehSkRj99vIMIgLYnT_tA-79" edge="1" target="ehSkRj99vIMIgLYnT_tA-95">
                    <mxGeometry width="50" height="50" relative="1" as="geometry">
                        <mxPoint x="400" y="500" as="sourcePoint"/>
                        <mxPoint x="640" y="540" as="targetPoint"/>
                        <Array as="points">
                            <mxPoint x="480" y="404"/>
                            <mxPoint x="480" y="540"/>
                        </Array>
                    </mxGeometry>
                </mxCell>
                <mxCell id="ehSkRj99vIMIgLYnT_tA-84" value="With freind" style="text;html=1;align=center;verticalAlign=middle;resizable=0;points=[];autosize=1;strokeColor=none;fillColor=none;" parent="1" vertex="1">
                    <mxGeometry x="400" y="370" width="80" height="30" as="geometry"/>
                </mxCell>
                <mxCell id="ehSkRj99vIMIgLYnT_tA-88" value="" style="edgeStyle=orthogonalEdgeStyle;rounded=0;orthogonalLoop=1;jettySize=auto;html=1;" parent="1" source="ehSkRj99vIMIgLYnT_tA-85" edge="1">
                    <mxGeometry relative="1" as="geometry">
                        <mxPoint x="360" y="620" as="targetPoint"/>
                    </mxGeometry>
                </mxCell>
                <mxCell id="ehSkRj99vIMIgLYnT_tA-85" value="Check is&amp;nbsp;&lt;div&gt;premium&lt;/div&gt;" style="rhombus;whiteSpace=wrap;html=1;" parent="1" vertex="1">
                    <mxGeometry x="320" y="470" width="80" height="80" as="geometry"/>
                </mxCell>
                <mxCell id="ehSkRj99vIMIgLYnT_tA-86" value="" style="endArrow=classic;html=1;rounded=0;exitX=0;exitY=0.5;exitDx=0;exitDy=0;entryX=0.5;entryY=0;entryDx=0;entryDy=0;" parent="1" source="ehSkRj99vIMIgLYnT_tA-85" target="ehSkRj99vIMIgLYnT_tA-49" edge="1">
                    <mxGeometry width="50" height="50" relative="1" as="geometry">
                        <mxPoint x="360" y="380" as="sourcePoint"/>
                        <mxPoint x="410" y="330" as="targetPoint"/>
                        <Array as="points">
                            <mxPoint x="-10" y="510"/>
                            <mxPoint x="-60" y="200"/>
                            <mxPoint x="60"/>
                            <mxPoint x="500"/>
                        </Array>
                    </mxGeometry>
                </mxCell>
                <mxCell id="ehSkRj99vIMIgLYnT_tA-92" value="" style="edgeStyle=orthogonalEdgeStyle;rounded=0;orthogonalLoop=1;jettySize=auto;html=1;" parent="1" source="ehSkRj99vIMIgLYnT_tA-87" edge="1">
                    <mxGeometry relative="1" as="geometry">
                        <mxPoint x="360" y="720" as="targetPoint"/>
                    </mxGeometry>
                </mxCell>
                <mxCell id="ehSkRj99vIMIgLYnT_tA-87" value="Watch Movie" style="shape=parallelogram;perimeter=parallelogramPerimeter;whiteSpace=wrap;html=1;fixedSize=1;" parent="1" vertex="1">
                    <mxGeometry x="310" y="618" width="100" height="50" as="geometry"/>
                </mxCell>
                <mxCell id="ehSkRj99vIMIgLYnT_tA-89" value="Final Output" style="text;html=1;align=center;verticalAlign=middle;resizable=0;points=[];autosize=1;strokeColor=none;fillColor=none;" parent="1" vertex="1">
                    <mxGeometry x="230" y="628" width="90" height="30" as="geometry"/>
                </mxCell>
                <mxCell id="ehSkRj99vIMIgLYnT_tA-91" value="Take feedback" style="whiteSpace=wrap;html=1;" parent="1" vertex="1">
                    <mxGeometry x="320" y="720" width="90" height="60" as="geometry"/>
                </mxCell>
                <mxCell id="ehSkRj99vIMIgLYnT_tA-93" value="" style="endArrow=classic;html=1;rounded=0;exitX=0.5;exitY=1;exitDx=0;exitDy=0;" parent="1" source="ehSkRj99vIMIgLYnT_tA-91" target="ehSkRj99vIMIgLYnT_tA-94" edge="1">
                    <mxGeometry width="50" height="50" relative="1" as="geometry">
                        <mxPoint x="40" y="580" as="sourcePoint"/>
                        <mxPoint x="365" y="840" as="targetPoint"/>
                    </mxGeometry>
                </mxCell>
                <mxCell id="ehSkRj99vIMIgLYnT_tA-94" value="END&amp;nbsp;" style="strokeWidth=2;html=1;shape=mxgraph.flowchart.terminator;whiteSpace=wrap;" parent="1" vertex="1">
                    <mxGeometry x="315" y="810" width="100" height="60" as="geometry"/>
                </mxCell>
                <mxCell id="ehSkRj99vIMIgLYnT_tA-95" value="&lt;font style=&quot;font-size: 18px;&quot;&gt;Invite Freind&lt;/font&gt;" style="rounded=0;whiteSpace=wrap;html=1;" parent="1" vertex="1">
                    <mxGeometry x="645" y="510" width="120" height="60" as="geometry"/>
                </mxCell>
                <mxCell id="ehSkRj99vIMIgLYnT_tA-96" value="" style="endArrow=classic;html=1;rounded=0;exitX=1;exitY=0.5;exitDx=0;exitDy=0;" parent="1" source="ehSkRj99vIMIgLYnT_tA-95" target="ehSkRj99vIMIgLYnT_tA-97" edge="1">
                    <mxGeometry width="50" height="50" relative="1" as="geometry">
                        <mxPoint x="430" y="440" as="sourcePoint"/>
                        <mxPoint x="850" y="540" as="targetPoint"/>
                    </mxGeometry>
                </mxCell>
                <mxCell id="ehSkRj99vIMIgLYnT_tA-97" value="&lt;font style=&quot;font-size: 18px;&quot;&gt;Send Link&amp;nbsp;&lt;/font&gt;" style="rounded=0;whiteSpace=wrap;html=1;" parent="1" vertex="1">
                    <mxGeometry x="825" y="510" width="120" height="60" as="geometry"/>
                </mxCell>
                <mxCell id="ehSkRj99vIMIgLYnT_tA-98" value="" style="endArrow=classic;html=1;rounded=0;exitX=0.5;exitY=1;exitDx=0;exitDy=0;" parent="1" source="ehSkRj99vIMIgLYnT_tA-97" target="ehSkRj99vIMIgLYnT_tA-100" edge="1">
                    <mxGeometry width="50" height="50" relative="1" as="geometry">
                        <mxPoint x="430" y="440" as="sourcePoint"/>
                        <mxPoint x="885" y="640" as="targetPoint"/>
                    </mxGeometry>
                </mxCell>
                <mxCell id="ehSkRj99vIMIgLYnT_tA-100" value="" style="rhombus;whiteSpace=wrap;html=1;" parent="1" vertex="1">
                    <mxGeometry x="820" y="600" width="130" height="80" as="geometry"/>
                </mxCell>
                <mxCell id="ehSkRj99vIMIgLYnT_tA-101" value="If friend has&amp;nbsp;&lt;div&gt;premium&lt;/div&gt;" style="text;html=1;align=center;verticalAlign=middle;resizable=0;points=[];autosize=1;strokeColor=none;fillColor=none;" parent="1" vertex="1">
                    <mxGeometry x="840" y="618" width="90" height="40" as="geometry"/>
                </mxCell>
                <mxCell id="ehSkRj99vIMIgLYnT_tA-102" value="" style="endArrow=classic;html=1;rounded=0;exitX=0;exitY=0.5;exitDx=0;exitDy=0;entryX=1;entryY=0.5;entryDx=0;entryDy=0;" parent="1" source="ehSkRj99vIMIgLYnT_tA-100" edge="1">
                    <mxGeometry width="50" height="50" relative="1" as="geometry">
                        <mxPoint x="820" y="636.5000000000002" as="sourcePoint"/>
                        <mxPoint x="760" y="639.5" as="targetPoint"/>
                    </mxGeometry>
                </mxCell>
                <mxCell id="ehSkRj99vIMIgLYnT_tA-103" value="&lt;font size=&quot;3&quot;&gt;Start group movie&lt;/font&gt;&lt;div&gt;&lt;font size=&quot;3&quot;&gt;session&lt;/font&gt;&lt;/div&gt;" style="rounded=0;whiteSpace=wrap;html=1;" parent="1" vertex="1">
                    <mxGeometry x="640" y="613" width="120" height="60" as="geometry"/>
                </mxCell>
                <mxCell id="ehSkRj99vIMIgLYnT_tA-104" value="" style="endArrow=classic;html=1;rounded=0;exitX=0.5;exitY=1;exitDx=0;exitDy=0;" parent="1" source="ehSkRj99vIMIgLYnT_tA-103" edge="1">
                    <mxGeometry width="50" height="50" relative="1" as="geometry">
                        <mxPoint x="340" y="680" as="sourcePoint"/>
                        <mxPoint x="700" y="730" as="targetPoint"/>
                    </mxGeometry>
                </mxCell>
                <mxCell id="ehSkRj99vIMIgLYnT_tA-105" value="&lt;font style=&quot;font-size: 14px;&quot;&gt;Allow mic and&amp;nbsp;&lt;/font&gt;&lt;div&gt;&lt;font size=&quot;3&quot;&gt;video conversation&lt;/font&gt;&lt;/div&gt;" style="rounded=0;whiteSpace=wrap;html=1;" parent="1" vertex="1">
                    <mxGeometry x="635" y="730" width="120" height="60" as="geometry"/>
                </mxCell>
                <mxCell id="ehSkRj99vIMIgLYnT_tA-106" value="" style="endArrow=classic;html=1;rounded=0;exitX=1;exitY=0.5;exitDx=0;exitDy=0;entryX=0.5;entryY=0;entryDx=0;entryDy=0;" parent="1" source="ehSkRj99vIMIgLYnT_tA-105" target="ehSkRj99vIMIgLYnT_tA-108" edge="1">
                    <mxGeometry width="50" height="50" relative="1" as="geometry">
                        <mxPoint x="340" y="680" as="sourcePoint"/>
                        <mxPoint x="810" y="860" as="targetPoint"/>
                        <Array as="points">
                            <mxPoint x="810" y="760"/>
                        </Array>
                    </mxGeometry>
                </mxCell>
                <mxCell id="ehSkRj99vIMIgLYnT_tA-108" value="&lt;font size=&quot;3&quot;&gt;Watch Movie&lt;/font&gt;" style="shape=parallelogram;perimeter=parallelogramPerimeter;whiteSpace=wrap;html=1;fixedSize=1;" parent="1" vertex="1">
                    <mxGeometry x="750" y="870" width="120" height="60" as="geometry"/>
                </mxCell>
                <mxCell id="ehSkRj99vIMIgLYnT_tA-109" value="" style="endArrow=classic;html=1;rounded=0;exitX=0.5;exitY=1;exitDx=0;exitDy=0;" parent="1" source="ehSkRj99vIMIgLYnT_tA-108" target="ehSkRj99vIMIgLYnT_tA-110" edge="1">
                    <mxGeometry width="50" height="50" relative="1" as="geometry">
                        <mxPoint x="340" y="680" as="sourcePoint"/>
                        <mxPoint x="810" y="990" as="targetPoint"/>
                    </mxGeometry>
                </mxCell>
                <mxCell id="ehSkRj99vIMIgLYnT_tA-110" value="&lt;font size=&quot;3&quot;&gt;END&lt;/font&gt;" style="strokeWidth=2;html=1;shape=mxgraph.flowchart.terminator;whiteSpace=wrap;" parent="1" vertex="1">
                    <mxGeometry x="760" y="960" width="100" height="60" as="geometry"/>
                </mxCell>
                <mxCell id="ehSkRj99vIMIgLYnT_tA-111" value="" style="endArrow=classic;html=1;rounded=0;exitX=1;exitY=0.5;exitDx=0;exitDy=0;" parent="1" source="ehSkRj99vIMIgLYnT_tA-100" edge="1">
                    <mxGeometry width="50" height="50" relative="1" as="geometry">
                        <mxPoint x="940" y="638" as="sourcePoint"/>
                        <mxPoint x="670" y="200" as="targetPoint"/>
                        <Array as="points">
                            <mxPoint x="950" y="1078"/>
                            <mxPoint x="500" y="1078"/>
                            <mxPoint x="500" y="748"/>
                            <mxPoint x="500" y="440"/>
                        </Array>
                    </mxGeometry>
                </mxCell>
                <mxCell id="ehSkRj99vIMIgLYnT_tA-112" value="Yes" style="text;html=1;align=center;verticalAlign=middle;resizable=0;points=[];autosize=1;strokeColor=none;fillColor=none;" parent="1" vertex="1">
                    <mxGeometry x="775" y="613" width="40" height="30" as="geometry"/>
                </mxCell>
                <mxCell id="4" value="NO" style="text;html=1;align=center;verticalAlign=middle;resizable=0;points=[];autosize=1;strokeColor=none;fillColor=none;" parent="1" vertex="1">
                    <mxGeometry x="330" y="160" width="40" height="30" as="geometry"/>
                </mxCell>
                <mxCell id="5" value="yes" style="text;html=1;align=center;verticalAlign=middle;resizable=0;points=[];autosize=1;strokeColor=none;fillColor=none;" parent="1" vertex="1">
                    <mxGeometry x="440" y="158" width="40" height="30" as="geometry"/>
                </mxCell>
                <mxCell id="6" value="No" style="text;html=1;align=center;verticalAlign=middle;resizable=0;points=[];autosize=1;strokeColor=none;fillColor=none;" parent="1" vertex="1">
                    <mxGeometry x="130" y="370" width="40" height="30" as="geometry"/>
                </mxCell>
                <mxCell id="7" value="yes" style="text;html=1;align=center;verticalAlign=middle;resizable=0;points=[];autosize=1;strokeColor=none;fillColor=none;" parent="1" vertex="1">
                    <mxGeometry x="265" y="370" width="40" height="30" as="geometry"/>
                </mxCell>
                <mxCell id="11" value="yes" style="text;html=1;align=center;verticalAlign=middle;resizable=0;points=[];autosize=1;strokeColor=none;fillColor=none;" parent="1" vertex="1">
                    <mxGeometry x="365" y="550" width="40" height="30" as="geometry"/>
                </mxCell>
                <mxCell id="12" value="No" style="text;html=1;align=center;verticalAlign=middle;resizable=0;points=[];autosize=1;strokeColor=none;fillColor=none;" parent="1" vertex="1">
                    <mxGeometry x="275" y="480" width="40" height="30" as="geometry"/>
                </mxCell>
                <mxCell id="13" value="No" style="text;html=1;align=center;verticalAlign=middle;resizable=0;points=[];autosize=1;strokeColor=none;fillColor=none;" parent="1" vertex="1">
                    <mxGeometry x="960" y="613" width="40" height="30" as="geometry"/>
                </mxCell>
                <mxCell id="21" style="edgeStyle=none;html=1;exitX=0;exitY=0.5;exitDx=0;exitDy=0;entryX=1.006;entryY=0.999;entryDx=0;entryDy=0;entryPerimeter=0;" parent="1" source="ehSkRj99vIMIgLYnT_tA-40" target="ehSkRj99vIMIgLYnT_tA-45" edge="1">
                    <mxGeometry relative="1" as="geometry">
                        <Array as="points">
                            <mxPoint x="160" y="400"/>
                        </Array>
                    </mxGeometry>
                </mxCell>
                <mxCell id="29" value="if user has premium&amp;nbsp;" style="rhombus;whiteSpace=wrap;html=1;" vertex="1" parent="1">
                    <mxGeometry x="590" y="-120" width="80" height="80" as="geometry"/>
                </mxCell>
                <mxCell id="31" value="" style="edgeStyle=none;orthogonalLoop=1;jettySize=auto;html=1;exitX=0.5;exitY=1;exitDx=0;exitDy=0;entryX=1.037;entryY=0.379;entryDx=0;entryDy=0;entryPerimeter=0;" edge="1" parent="1" source="29" target="ehSkRj99vIMIgLYnT_tA-30">
                    <mxGeometry width="100" relative="1" as="geometry">
                        <mxPoint x="580" y="-30" as="sourcePoint"/>
                        <mxPoint x="590" y="290" as="targetPoint"/>
                        <Array as="points"/>
                    </mxGeometry>
                </mxCell>
                <mxCell id="32" value="" style="edgeStyle=none;orthogonalLoop=1;jettySize=auto;html=1;entryX=0.5;entryY=0;entryDx=0;entryDy=0;" edge="1" parent="1" target="ehSkRj99vIMIgLYnT_tA-49">
                    <mxGeometry width="100" relative="1" as="geometry">
                        <mxPoint x="670" y="-80" as="sourcePoint"/>
                        <mxPoint x="730" y="-80" as="targetPoint"/>
                        <Array as="points"/>
                    </mxGeometry>
                </mxCell>
                <mxCell id="33" value="No" style="text;html=1;align=center;verticalAlign=middle;resizable=0;points=[];autosize=1;strokeColor=none;fillColor=none;" vertex="1" parent="1">
                    <mxGeometry x="670" y="-92" width="40" height="30" as="geometry"/>
                </mxCell>
                <mxCell id="35" value="Yes" style="text;html=1;align=center;verticalAlign=middle;resizable=0;points=[];autosize=1;strokeColor=none;fillColor=none;" vertex="1" parent="1">
                    <mxGeometry x="590" y="-32" width="40" height="30" as="geometry"/>
                </mxCell>
            </root>
        </mxGraphModel>
    </diagram>
</mxfile>